# xmcd CD database file
#
# Track frame offsets:
#	150
#	14964
#	29371
#
# Disc length: 578 seconds
#
# Revision: 2
# Processed by: cddbd v1.5.2PL0 Copyright (c) Steve Scherf et al.
# Submitted via: CDex 1.70beta2
#
DISCID=22024003
DTITLE=The Booby Prize - Liquid Disease
DYEAR=2005
DGENRE=Rock
TTITLE0=Like You and Me
TTITLE1=Forever Youth
TTITLE2=Take Me (I'm Invisible)
EXTD=YEAR: 2005
EXTT0=
EXTT1=
EXTT2=
PLAYORDER=
